<mxfile host="app.diagrams.net" agent="Mozilla/5.0 (Windows NT 10.0; Win64; x64) AppleWebKit/537.36 (KHTML, like Gecko) Chrome/129.0.0.0 Safari/537.36 Edg/129.0.0.0" version="24.7.17">
  <diagram name="Page-1" id="zW1g4C6BafIXqibn1adY">
    <mxGraphModel dx="3634" dy="1392" grid="1" gridSize="10" guides="1" tooltips="1" connect="1" arrows="1" fold="1" page="1" pageScale="1" pageWidth="850" pageHeight="1100" math="0" shadow="0">
      <root>
        <mxCell id="0" />
        <mxCell id="1" parent="0" />
        <mxCell id="oZgCo_1qlDKIBE6nWb-r-1" value="Users" style="whiteSpace=wrap;html=1;align=center;" vertex="1" parent="1">
          <mxGeometry x="190" y="250" width="100" height="40" as="geometry" />
        </mxCell>
        <mxCell id="oZgCo_1qlDKIBE6nWb-r-2" value="user_id" style="ellipse;whiteSpace=wrap;html=1;align=center;fontStyle=4;" vertex="1" parent="1">
          <mxGeometry x="180" y="140" width="100" height="40" as="geometry" />
        </mxCell>
        <mxCell id="oZgCo_1qlDKIBE6nWb-r-3" value="email" style="ellipse;whiteSpace=wrap;html=1;align=center;" vertex="1" parent="1">
          <mxGeometry x="60" y="210" width="100" height="40" as="geometry" />
        </mxCell>
        <mxCell id="oZgCo_1qlDKIBE6nWb-r-4" value="password" style="ellipse;whiteSpace=wrap;html=1;align=center;" vertex="1" parent="1">
          <mxGeometry x="60" y="370" width="100" height="40" as="geometry" />
        </mxCell>
        <mxCell id="oZgCo_1qlDKIBE6nWb-r-8" value="" style="endArrow=none;html=1;rounded=0;exitX=0.5;exitY=0;exitDx=0;exitDy=0;entryX=0.39;entryY=1.091;entryDx=0;entryDy=0;entryPerimeter=0;" edge="1" parent="1" source="oZgCo_1qlDKIBE6nWb-r-4" target="oZgCo_1qlDKIBE6nWb-r-1">
          <mxGeometry relative="1" as="geometry">
            <mxPoint x="140" y="340" as="sourcePoint" />
            <mxPoint x="300" y="340" as="targetPoint" />
          </mxGeometry>
        </mxCell>
        <mxCell id="oZgCo_1qlDKIBE6nWb-r-10" value="role_id (FK)" style="ellipse;whiteSpace=wrap;html=1;align=center;" vertex="1" parent="1">
          <mxGeometry x="300" y="350" width="100" height="40" as="geometry" />
        </mxCell>
        <mxCell id="oZgCo_1qlDKIBE6nWb-r-14" value="" style="endArrow=none;html=1;rounded=0;entryX=0.3;entryY=1;entryDx=0;entryDy=0;entryPerimeter=0;exitX=0.25;exitY=0;exitDx=0;exitDy=0;" edge="1" parent="1" source="oZgCo_1qlDKIBE6nWb-r-1" target="oZgCo_1qlDKIBE6nWb-r-2">
          <mxGeometry relative="1" as="geometry">
            <mxPoint x="200" y="230" as="sourcePoint" />
            <mxPoint x="360" y="230" as="targetPoint" />
          </mxGeometry>
        </mxCell>
        <mxCell id="oZgCo_1qlDKIBE6nWb-r-15" value="" style="endArrow=none;html=1;rounded=0;exitX=0.364;exitY=-0.047;exitDx=0;exitDy=0;exitPerimeter=0;entryX=0.75;entryY=1;entryDx=0;entryDy=0;" edge="1" parent="1" source="oZgCo_1qlDKIBE6nWb-r-10" target="oZgCo_1qlDKIBE6nWb-r-1">
          <mxGeometry relative="1" as="geometry">
            <mxPoint x="270" y="345" as="sourcePoint" />
            <mxPoint x="320" y="275" as="targetPoint" />
          </mxGeometry>
        </mxCell>
        <mxCell id="oZgCo_1qlDKIBE6nWb-r-16" value="phone_no" style="ellipse;whiteSpace=wrap;html=1;align=center;" vertex="1" parent="1">
          <mxGeometry x="130" y="420" width="100" height="40" as="geometry" />
        </mxCell>
        <mxCell id="oZgCo_1qlDKIBE6nWb-r-17" value="patients" style="whiteSpace=wrap;html=1;align=center;" vertex="1" parent="1">
          <mxGeometry x="580" y="210" width="100" height="40" as="geometry" />
        </mxCell>
        <mxCell id="oZgCo_1qlDKIBE6nWb-r-18" value="patient_id" style="ellipse;whiteSpace=wrap;html=1;align=center;fontStyle=4;" vertex="1" parent="1">
          <mxGeometry x="460" y="90" width="100" height="40" as="geometry" />
        </mxCell>
        <mxCell id="oZgCo_1qlDKIBE6nWb-r-19" value="name" style="ellipse;whiteSpace=wrap;html=1;align=center;" vertex="1" parent="1">
          <mxGeometry x="430" y="160" width="70" height="30" as="geometry" />
        </mxCell>
        <mxCell id="oZgCo_1qlDKIBE6nWb-r-20" value="dob" style="ellipse;whiteSpace=wrap;html=1;align=center;" vertex="1" parent="1">
          <mxGeometry x="425" y="300" width="100" height="40" as="geometry" />
        </mxCell>
        <mxCell id="oZgCo_1qlDKIBE6nWb-r-21" value="" style="endArrow=none;html=1;rounded=0;exitX=0.5;exitY=0;exitDx=0;exitDy=0;entryX=0.39;entryY=1.091;entryDx=0;entryDy=0;entryPerimeter=0;" edge="1" parent="1" source="oZgCo_1qlDKIBE6nWb-r-20" target="oZgCo_1qlDKIBE6nWb-r-17">
          <mxGeometry relative="1" as="geometry">
            <mxPoint x="530" y="300" as="sourcePoint" />
            <mxPoint x="690" y="300" as="targetPoint" />
          </mxGeometry>
        </mxCell>
        <mxCell id="oZgCo_1qlDKIBE6nWb-r-22" value="user_id (FK)" style="ellipse;whiteSpace=wrap;html=1;align=center;" vertex="1" parent="1">
          <mxGeometry x="680" y="310" width="100" height="40" as="geometry" />
        </mxCell>
        <mxCell id="oZgCo_1qlDKIBE6nWb-r-24" value="" style="endArrow=none;html=1;rounded=0;entryX=0.3;entryY=1;entryDx=0;entryDy=0;entryPerimeter=0;exitX=0.25;exitY=0;exitDx=0;exitDy=0;" edge="1" parent="1" source="oZgCo_1qlDKIBE6nWb-r-17" target="oZgCo_1qlDKIBE6nWb-r-18">
          <mxGeometry relative="1" as="geometry">
            <mxPoint x="590" y="190" as="sourcePoint" />
            <mxPoint x="750" y="190" as="targetPoint" />
          </mxGeometry>
        </mxCell>
        <mxCell id="oZgCo_1qlDKIBE6nWb-r-25" value="" style="endArrow=none;html=1;rounded=0;exitX=0.364;exitY=-0.047;exitDx=0;exitDy=0;exitPerimeter=0;entryX=0.75;entryY=1;entryDx=0;entryDy=0;" edge="1" parent="1" source="oZgCo_1qlDKIBE6nWb-r-22" target="oZgCo_1qlDKIBE6nWb-r-17">
          <mxGeometry relative="1" as="geometry">
            <mxPoint x="660" y="305" as="sourcePoint" />
            <mxPoint x="710" y="235" as="targetPoint" />
          </mxGeometry>
        </mxCell>
        <mxCell id="oZgCo_1qlDKIBE6nWb-r-26" value="gender" style="ellipse;whiteSpace=wrap;html=1;align=center;" vertex="1" parent="1">
          <mxGeometry x="570" y="360" width="100" height="40" as="geometry" />
        </mxCell>
        <mxCell id="oZgCo_1qlDKIBE6nWb-r-27" value="blood_group" style="ellipse;whiteSpace=wrap;html=1;align=center;" vertex="1" parent="1">
          <mxGeometry x="760" y="210" width="100" height="40" as="geometry" />
        </mxCell>
        <mxCell id="oZgCo_1qlDKIBE6nWb-r-28" value="medical_history" style="ellipse;whiteSpace=wrap;html=1;align=center;" vertex="1" parent="1">
          <mxGeometry x="580.06" y="100" width="100" height="40" as="geometry" />
        </mxCell>
        <mxCell id="oZgCo_1qlDKIBE6nWb-r-29" value="address" style="ellipse;whiteSpace=wrap;html=1;align=center;" vertex="1" parent="1">
          <mxGeometry x="680" y="120" width="100" height="40" as="geometry" />
        </mxCell>
        <mxCell id="oZgCo_1qlDKIBE6nWb-r-30" value="" style="endArrow=none;html=1;rounded=0;entryX=0.5;entryY=1;entryDx=0;entryDy=0;" edge="1" parent="1" target="oZgCo_1qlDKIBE6nWb-r-17">
          <mxGeometry relative="1" as="geometry">
            <mxPoint x="620" y="360" as="sourcePoint" />
            <mxPoint x="720" y="310" as="targetPoint" />
          </mxGeometry>
        </mxCell>
        <mxCell id="oZgCo_1qlDKIBE6nWb-r-34" value="" style="endArrow=none;html=1;rounded=0;entryX=0.5;entryY=1;entryDx=0;entryDy=0;exitX=0.75;exitY=0;exitDx=0;exitDy=0;" edge="1" parent="1" source="oZgCo_1qlDKIBE6nWb-r-17" target="oZgCo_1qlDKIBE6nWb-r-29">
          <mxGeometry relative="1" as="geometry">
            <mxPoint x="690" y="145" as="sourcePoint" />
            <mxPoint x="850" y="145" as="targetPoint" />
          </mxGeometry>
        </mxCell>
        <mxCell id="oZgCo_1qlDKIBE6nWb-r-35" value="" style="endArrow=none;html=1;rounded=0;" edge="1" parent="1">
          <mxGeometry relative="1" as="geometry">
            <mxPoint x="680" y="229.55" as="sourcePoint" />
            <mxPoint x="760" y="230" as="targetPoint" />
          </mxGeometry>
        </mxCell>
        <mxCell id="oZgCo_1qlDKIBE6nWb-r-198" value="Doctors" style="whiteSpace=wrap;html=1;align=center;" vertex="1" parent="1">
          <mxGeometry x="110" y="920" width="100" height="40" as="geometry" />
        </mxCell>
        <mxCell id="oZgCo_1qlDKIBE6nWb-r-199" value="doctor_id" style="ellipse;whiteSpace=wrap;html=1;align=center;fontStyle=4;" vertex="1" parent="1">
          <mxGeometry x="-70" y="855" width="100" height="40" as="geometry" />
        </mxCell>
        <mxCell id="oZgCo_1qlDKIBE6nWb-r-200" value="name" style="ellipse;whiteSpace=wrap;html=1;align=center;" vertex="1" parent="1">
          <mxGeometry x="-50" y="930" width="100" height="40" as="geometry" />
        </mxCell>
        <mxCell id="oZgCo_1qlDKIBE6nWb-r-201" value="dob" style="ellipse;whiteSpace=wrap;html=1;align=center;" vertex="1" parent="1">
          <mxGeometry x="-70" y="1030" width="100" height="40" as="geometry" />
        </mxCell>
        <mxCell id="oZgCo_1qlDKIBE6nWb-r-202" value="" style="endArrow=none;html=1;rounded=0;exitX=0.5;exitY=0;exitDx=0;exitDy=0;entryX=0;entryY=1;entryDx=0;entryDy=0;" edge="1" parent="1" source="oZgCo_1qlDKIBE6nWb-r-201" target="oZgCo_1qlDKIBE6nWb-r-198">
          <mxGeometry relative="1" as="geometry">
            <mxPoint x="60" y="1010" as="sourcePoint" />
            <mxPoint x="220" y="1010" as="targetPoint" />
          </mxGeometry>
        </mxCell>
        <mxCell id="oZgCo_1qlDKIBE6nWb-r-203" value="dept_id(FK)" style="ellipse;whiteSpace=wrap;html=1;align=center;" vertex="1" parent="1">
          <mxGeometry x="170" y="1040" width="100" height="40" as="geometry" />
        </mxCell>
        <mxCell id="oZgCo_1qlDKIBE6nWb-r-204" value="" style="line;strokeWidth=1;rotatable=0;dashed=0;labelPosition=right;align=left;verticalAlign=middle;spacingTop=0;spacingLeft=6;points=[];portConstraint=eastwest;" vertex="1" parent="1">
          <mxGeometry x="50" y="945" width="60" height="10" as="geometry" />
        </mxCell>
        <mxCell id="oZgCo_1qlDKIBE6nWb-r-205" value="" style="endArrow=none;html=1;rounded=0;entryX=0.3;entryY=1;entryDx=0;entryDy=0;entryPerimeter=0;exitX=0.25;exitY=0;exitDx=0;exitDy=0;" edge="1" parent="1" source="oZgCo_1qlDKIBE6nWb-r-198" target="oZgCo_1qlDKIBE6nWb-r-199">
          <mxGeometry relative="1" as="geometry">
            <mxPoint x="120" y="900" as="sourcePoint" />
            <mxPoint x="280" y="900" as="targetPoint" />
          </mxGeometry>
        </mxCell>
        <mxCell id="oZgCo_1qlDKIBE6nWb-r-206" value="" style="endArrow=none;html=1;rounded=0;exitX=0.364;exitY=-0.047;exitDx=0;exitDy=0;exitPerimeter=0;entryX=0.75;entryY=1;entryDx=0;entryDy=0;" edge="1" parent="1" source="oZgCo_1qlDKIBE6nWb-r-203" target="oZgCo_1qlDKIBE6nWb-r-198">
          <mxGeometry relative="1" as="geometry">
            <mxPoint x="190" y="1015" as="sourcePoint" />
            <mxPoint x="240" y="945" as="targetPoint" />
          </mxGeometry>
        </mxCell>
        <mxCell id="oZgCo_1qlDKIBE6nWb-r-207" value="gender" style="ellipse;whiteSpace=wrap;html=1;align=center;" vertex="1" parent="1">
          <mxGeometry x="80" y="1070" width="100" height="40" as="geometry" />
        </mxCell>
        <mxCell id="oZgCo_1qlDKIBE6nWb-r-208" value="user_id(FK)" style="ellipse;whiteSpace=wrap;html=1;align=center;" vertex="1" parent="1">
          <mxGeometry x="290" y="920" width="100" height="40" as="geometry" />
        </mxCell>
        <mxCell id="oZgCo_1qlDKIBE6nWb-r-209" value="address" style="ellipse;whiteSpace=wrap;html=1;align=center;" vertex="1" parent="1">
          <mxGeometry x="100" y="760" width="100" height="40" as="geometry" />
        </mxCell>
        <mxCell id="oZgCo_1qlDKIBE6nWb-r-210" value="" style="endArrow=none;html=1;rounded=0;entryX=0.5;entryY=1;entryDx=0;entryDy=0;" edge="1" parent="1" target="oZgCo_1qlDKIBE6nWb-r-198">
          <mxGeometry relative="1" as="geometry">
            <mxPoint x="150" y="1070" as="sourcePoint" />
            <mxPoint x="250" y="1020" as="targetPoint" />
          </mxGeometry>
        </mxCell>
        <mxCell id="oZgCo_1qlDKIBE6nWb-r-211" value="" style="endArrow=none;html=1;rounded=0;entryX=0.5;entryY=1;entryDx=0;entryDy=0;exitX=0.75;exitY=0;exitDx=0;exitDy=0;" edge="1" parent="1" source="oZgCo_1qlDKIBE6nWb-r-198" target="oZgCo_1qlDKIBE6nWb-r-209">
          <mxGeometry relative="1" as="geometry">
            <mxPoint x="220" y="855" as="sourcePoint" />
            <mxPoint x="380" y="855" as="targetPoint" />
          </mxGeometry>
        </mxCell>
        <mxCell id="oZgCo_1qlDKIBE6nWb-r-212" value="" style="endArrow=none;html=1;rounded=0;" edge="1" parent="1">
          <mxGeometry relative="1" as="geometry">
            <mxPoint x="210" y="939.55" as="sourcePoint" />
            <mxPoint x="290" y="940" as="targetPoint" />
          </mxGeometry>
        </mxCell>
        <mxCell id="oZgCo_1qlDKIBE6nWb-r-213" value="" style="endArrow=none;html=1;rounded=0;exitX=0.5;exitY=0;exitDx=0;exitDy=0;entryX=0.5;entryY=1;entryDx=0;entryDy=0;" edge="1" parent="1" source="oZgCo_1qlDKIBE6nWb-r-198" target="oZgCo_1qlDKIBE6nWb-r-214">
          <mxGeometry relative="1" as="geometry">
            <mxPoint x="90" y="770" as="sourcePoint" />
            <mxPoint x="160" y="830" as="targetPoint" />
          </mxGeometry>
        </mxCell>
        <mxCell id="oZgCo_1qlDKIBE6nWb-r-214" value="salary&lt;div&gt;&lt;br&gt;&lt;/div&gt;" style="ellipse;whiteSpace=wrap;html=1;align=center;" vertex="1" parent="1">
          <mxGeometry x="-30" y="755" width="100" height="40" as="geometry" />
        </mxCell>
        <mxCell id="oZgCo_1qlDKIBE6nWb-r-215" value="Availability" style="whiteSpace=wrap;html=1;align=center;" vertex="1" parent="1">
          <mxGeometry x="520" y="1240" width="100" height="40" as="geometry" />
        </mxCell>
        <mxCell id="oZgCo_1qlDKIBE6nWb-r-216" value="availability_id" style="ellipse;whiteSpace=wrap;html=1;align=center;fontStyle=4;" vertex="1" parent="1">
          <mxGeometry x="370" y="1180" width="100" height="40" as="geometry" />
        </mxCell>
        <mxCell id="oZgCo_1qlDKIBE6nWb-r-217" value="start_time" style="ellipse;whiteSpace=wrap;html=1;align=center;" vertex="1" parent="1">
          <mxGeometry x="360" y="1250" width="100" height="40" as="geometry" />
        </mxCell>
        <mxCell id="oZgCo_1qlDKIBE6nWb-r-218" value="end_time" style="ellipse;whiteSpace=wrap;html=1;align=center;" vertex="1" parent="1">
          <mxGeometry x="410" y="1350" width="100" height="40" as="geometry" />
        </mxCell>
        <mxCell id="oZgCo_1qlDKIBE6nWb-r-219" value="" style="endArrow=none;html=1;rounded=0;exitX=0.5;exitY=0;exitDx=0;exitDy=0;entryX=0.39;entryY=1.091;entryDx=0;entryDy=0;entryPerimeter=0;" edge="1" parent="1" source="oZgCo_1qlDKIBE6nWb-r-218" target="oZgCo_1qlDKIBE6nWb-r-215">
          <mxGeometry relative="1" as="geometry">
            <mxPoint x="470" y="1330" as="sourcePoint" />
            <mxPoint x="630" y="1330" as="targetPoint" />
          </mxGeometry>
        </mxCell>
        <mxCell id="oZgCo_1qlDKIBE6nWb-r-220" value="slot_status" style="ellipse;whiteSpace=wrap;html=1;align=center;" vertex="1" parent="1">
          <mxGeometry x="620" y="1340" width="100" height="40" as="geometry" />
        </mxCell>
        <mxCell id="oZgCo_1qlDKIBE6nWb-r-221" value="" style="line;strokeWidth=1;rotatable=0;dashed=0;labelPosition=right;align=left;verticalAlign=middle;spacingTop=0;spacingLeft=6;points=[];portConstraint=eastwest;" vertex="1" parent="1">
          <mxGeometry x="460" y="1265" width="60" height="10" as="geometry" />
        </mxCell>
        <mxCell id="oZgCo_1qlDKIBE6nWb-r-222" value="" style="endArrow=none;html=1;rounded=0;entryX=0.3;entryY=1;entryDx=0;entryDy=0;entryPerimeter=0;exitX=0.25;exitY=0;exitDx=0;exitDy=0;" edge="1" parent="1" source="oZgCo_1qlDKIBE6nWb-r-215" target="oZgCo_1qlDKIBE6nWb-r-216">
          <mxGeometry relative="1" as="geometry">
            <mxPoint x="530" y="1220" as="sourcePoint" />
            <mxPoint x="690" y="1220" as="targetPoint" />
          </mxGeometry>
        </mxCell>
        <mxCell id="oZgCo_1qlDKIBE6nWb-r-223" value="" style="endArrow=none;html=1;rounded=0;exitX=0.364;exitY=-0.047;exitDx=0;exitDy=0;exitPerimeter=0;entryX=0.75;entryY=1;entryDx=0;entryDy=0;" edge="1" parent="1" source="oZgCo_1qlDKIBE6nWb-r-220" target="oZgCo_1qlDKIBE6nWb-r-215">
          <mxGeometry relative="1" as="geometry">
            <mxPoint x="600" y="1335" as="sourcePoint" />
            <mxPoint x="650" y="1265" as="targetPoint" />
          </mxGeometry>
        </mxCell>
        <mxCell id="oZgCo_1qlDKIBE6nWb-r-224" value="doctor_id(FK)" style="ellipse;whiteSpace=wrap;html=1;align=center;" vertex="1" parent="1">
          <mxGeometry x="510" y="1390" width="100" height="40" as="geometry" />
        </mxCell>
        <mxCell id="oZgCo_1qlDKIBE6nWb-r-225" value="availability_date" style="ellipse;whiteSpace=wrap;html=1;align=center;" vertex="1" parent="1">
          <mxGeometry x="580" y="1160" width="100" height="40" as="geometry" />
        </mxCell>
        <mxCell id="oZgCo_1qlDKIBE6nWb-r-226" value="" style="endArrow=none;html=1;rounded=0;entryX=0.5;entryY=1;entryDx=0;entryDy=0;" edge="1" parent="1" target="oZgCo_1qlDKIBE6nWb-r-215">
          <mxGeometry relative="1" as="geometry">
            <mxPoint x="560" y="1390" as="sourcePoint" />
            <mxPoint x="660" y="1340" as="targetPoint" />
          </mxGeometry>
        </mxCell>
        <mxCell id="oZgCo_1qlDKIBE6nWb-r-227" value="" style="endArrow=none;html=1;rounded=0;entryX=0.5;entryY=1;entryDx=0;entryDy=0;exitX=0.75;exitY=0;exitDx=0;exitDy=0;" edge="1" parent="1" source="oZgCo_1qlDKIBE6nWb-r-215" target="oZgCo_1qlDKIBE6nWb-r-225">
          <mxGeometry relative="1" as="geometry">
            <mxPoint x="630" y="1175" as="sourcePoint" />
            <mxPoint x="790" y="1175" as="targetPoint" />
          </mxGeometry>
        </mxCell>
        <mxCell id="oZgCo_1qlDKIBE6nWb-r-228" value="" style="endArrow=none;html=1;rounded=0;exitX=1;exitY=0.75;exitDx=0;exitDy=0;entryX=0.5;entryY=0;entryDx=0;entryDy=0;" edge="1" parent="1" source="oZgCo_1qlDKIBE6nWb-r-198" target="oZgCo_1qlDKIBE6nWb-r-215">
          <mxGeometry relative="1" as="geometry">
            <mxPoint x="300" y="1100" as="sourcePoint" />
            <mxPoint x="460" y="1100" as="targetPoint" />
          </mxGeometry>
        </mxCell>
        <mxCell id="oZgCo_1qlDKIBE6nWb-r-230" value="has" style="shape=rhombus;perimeter=rhombusPerimeter;whiteSpace=wrap;html=1;align=center;" vertex="1" parent="1">
          <mxGeometry x="320" y="1070" width="120" height="60" as="geometry" />
        </mxCell>
        <mxCell id="oZgCo_1qlDKIBE6nWb-r-233" value="1" style="resizable=0;html=1;whiteSpace=wrap;align=right;verticalAlign=bottom;" connectable="0" vertex="1" parent="1">
          <mxGeometry x="250" y="970" as="geometry" />
        </mxCell>
        <mxCell id="oZgCo_1qlDKIBE6nWb-r-244" value="Departments" style="whiteSpace=wrap;html=1;align=center;" vertex="1" parent="1">
          <mxGeometry x="-90" y="1290" width="100" height="40" as="geometry" />
        </mxCell>
        <mxCell id="oZgCo_1qlDKIBE6nWb-r-245" value="dept_id" style="ellipse;whiteSpace=wrap;html=1;align=center;fontStyle=4;" vertex="1" parent="1">
          <mxGeometry x="-190" y="1370" width="100" height="40" as="geometry" />
        </mxCell>
        <mxCell id="oZgCo_1qlDKIBE6nWb-r-246" value="department_name" style="ellipse;whiteSpace=wrap;html=1;align=center;" vertex="1" parent="1">
          <mxGeometry x="-60" y="1420" width="100" height="40" as="geometry" />
        </mxCell>
        <mxCell id="oZgCo_1qlDKIBE6nWb-r-247" value="" style="endArrow=none;html=1;rounded=0;exitX=0.5;exitY=0;exitDx=0;exitDy=0;entryX=0.39;entryY=1.091;entryDx=0;entryDy=0;entryPerimeter=0;" edge="1" parent="1" source="oZgCo_1qlDKIBE6nWb-r-246" target="oZgCo_1qlDKIBE6nWb-r-244">
          <mxGeometry relative="1" as="geometry">
            <mxPoint x="-80" y="1410" as="sourcePoint" />
            <mxPoint x="80" y="1410" as="targetPoint" />
          </mxGeometry>
        </mxCell>
        <mxCell id="oZgCo_1qlDKIBE6nWb-r-250" value="belongs" style="shape=rhombus;perimeter=rhombusPerimeter;whiteSpace=wrap;html=1;align=center;" vertex="1" parent="1">
          <mxGeometry x="-60" y="1160" width="120" height="60" as="geometry" />
        </mxCell>
        <mxCell id="oZgCo_1qlDKIBE6nWb-r-251" value="" style="endArrow=none;html=1;rounded=0;exitX=0.5;exitY=0;exitDx=0;exitDy=0;entryX=0.5;entryY=1;entryDx=0;entryDy=0;" edge="1" parent="1" source="oZgCo_1qlDKIBE6nWb-r-244" target="oZgCo_1qlDKIBE6nWb-r-250">
          <mxGeometry relative="1" as="geometry">
            <mxPoint y="1250" as="sourcePoint" />
            <mxPoint x="160" y="1250" as="targetPoint" />
          </mxGeometry>
        </mxCell>
        <mxCell id="oZgCo_1qlDKIBE6nWb-r-254" value="" style="endArrow=none;html=1;rounded=0;exitX=0.5;exitY=0;exitDx=0;exitDy=0;" edge="1" parent="1" source="oZgCo_1qlDKIBE6nWb-r-250">
          <mxGeometry relative="1" as="geometry">
            <mxPoint y="1150" as="sourcePoint" />
            <mxPoint x="150" y="960" as="targetPoint" />
          </mxGeometry>
        </mxCell>
        <mxCell id="oZgCo_1qlDKIBE6nWb-r-256" value="N" style="resizable=0;html=1;whiteSpace=wrap;align=right;verticalAlign=bottom;" connectable="0" vertex="1" parent="1">
          <mxGeometry x="580.0591603173298" y="1230.0476569222933" as="geometry">
            <mxPoint x="3" y="9" as="offset" />
          </mxGeometry>
        </mxCell>
        <mxCell id="oZgCo_1qlDKIBE6nWb-r-257" value="1" style="resizable=0;html=1;whiteSpace=wrap;align=right;verticalAlign=bottom;" connectable="0" vertex="1" parent="1">
          <mxGeometry x="-30" y="1265" as="geometry">
            <mxPoint x="20" y="16" as="offset" />
          </mxGeometry>
        </mxCell>
        <mxCell id="oZgCo_1qlDKIBE6nWb-r-259" value="" style="endArrow=none;html=1;rounded=0;exitX=0.606;exitY=-0.046;exitDx=0;exitDy=0;exitPerimeter=0;" edge="1" parent="1" source="oZgCo_1qlDKIBE6nWb-r-245">
          <mxGeometry relative="1" as="geometry">
            <mxPoint x="-250" y="1309.41" as="sourcePoint" />
            <mxPoint x="-90" y="1309.41" as="targetPoint" />
          </mxGeometry>
        </mxCell>
        <mxCell id="oZgCo_1qlDKIBE6nWb-r-260" value="N" style="resizable=0;html=1;whiteSpace=wrap;align=right;verticalAlign=bottom;" connectable="0" vertex="1" parent="1">
          <mxGeometry x="140" y="1010" as="geometry">
            <mxPoint x="5" y="3" as="offset" />
          </mxGeometry>
        </mxCell>
        <mxCell id="oZgCo_1qlDKIBE6nWb-r-284" value="Appointments" style="whiteSpace=wrap;html=1;align=center;" vertex="1" parent="1">
          <mxGeometry x="610" y="710" width="100" height="40" as="geometry" />
        </mxCell>
        <mxCell id="oZgCo_1qlDKIBE6nWb-r-285" value="appointment_id" style="ellipse;whiteSpace=wrap;html=1;align=center;fontStyle=4;" vertex="1" parent="1">
          <mxGeometry x="540" y="610" width="100" height="40" as="geometry" />
        </mxCell>
        <mxCell id="oZgCo_1qlDKIBE6nWb-r-286" value="start_time" style="ellipse;whiteSpace=wrap;html=1;align=center;" vertex="1" parent="1">
          <mxGeometry x="420" y="720" width="100" height="40" as="geometry" />
        </mxCell>
        <mxCell id="oZgCo_1qlDKIBE6nWb-r-287" value="patient_id" style="ellipse;whiteSpace=wrap;html=1;align=center;" vertex="1" parent="1">
          <mxGeometry x="500" y="820" width="100" height="40" as="geometry" />
        </mxCell>
        <mxCell id="oZgCo_1qlDKIBE6nWb-r-288" value="" style="endArrow=none;html=1;rounded=0;exitX=0.5;exitY=0;exitDx=0;exitDy=0;entryX=0.39;entryY=1.091;entryDx=0;entryDy=0;entryPerimeter=0;" edge="1" parent="1" source="oZgCo_1qlDKIBE6nWb-r-287" target="oZgCo_1qlDKIBE6nWb-r-284">
          <mxGeometry relative="1" as="geometry">
            <mxPoint x="560" y="800" as="sourcePoint" />
            <mxPoint x="720" y="800" as="targetPoint" />
          </mxGeometry>
        </mxCell>
        <mxCell id="oZgCo_1qlDKIBE6nWb-r-289" value="status" style="ellipse;whiteSpace=wrap;html=1;align=center;" vertex="1" parent="1">
          <mxGeometry x="710" y="810" width="100" height="40" as="geometry" />
        </mxCell>
        <mxCell id="oZgCo_1qlDKIBE6nWb-r-290" value="" style="line;strokeWidth=1;rotatable=0;dashed=0;labelPosition=right;align=left;verticalAlign=middle;spacingTop=0;spacingLeft=6;points=[];portConstraint=eastwest;" vertex="1" parent="1">
          <mxGeometry x="520" y="735" width="90" height="10" as="geometry" />
        </mxCell>
        <mxCell id="oZgCo_1qlDKIBE6nWb-r-291" value="" style="endArrow=none;html=1;rounded=0;entryX=0.3;entryY=1;entryDx=0;entryDy=0;entryPerimeter=0;exitX=0.25;exitY=0;exitDx=0;exitDy=0;" edge="1" parent="1" source="oZgCo_1qlDKIBE6nWb-r-284" target="oZgCo_1qlDKIBE6nWb-r-285">
          <mxGeometry relative="1" as="geometry">
            <mxPoint x="620" y="690" as="sourcePoint" />
            <mxPoint x="780" y="690" as="targetPoint" />
          </mxGeometry>
        </mxCell>
        <mxCell id="oZgCo_1qlDKIBE6nWb-r-292" value="" style="endArrow=none;html=1;rounded=0;exitX=0.364;exitY=-0.047;exitDx=0;exitDy=0;exitPerimeter=0;entryX=0.75;entryY=1;entryDx=0;entryDy=0;" edge="1" parent="1" source="oZgCo_1qlDKIBE6nWb-r-289" target="oZgCo_1qlDKIBE6nWb-r-284">
          <mxGeometry relative="1" as="geometry">
            <mxPoint x="690" y="805" as="sourcePoint" />
            <mxPoint x="740" y="735" as="targetPoint" />
          </mxGeometry>
        </mxCell>
        <mxCell id="oZgCo_1qlDKIBE6nWb-r-293" value="doctor_id(FK)" style="ellipse;whiteSpace=wrap;html=1;align=center;" vertex="1" parent="1">
          <mxGeometry x="600" y="860" width="100" height="40" as="geometry" />
        </mxCell>
        <mxCell id="oZgCo_1qlDKIBE6nWb-r-294" value="appointment_date" style="ellipse;whiteSpace=wrap;html=1;align=center;" vertex="1" parent="1">
          <mxGeometry x="670" y="630" width="100" height="40" as="geometry" />
        </mxCell>
        <mxCell id="oZgCo_1qlDKIBE6nWb-r-295" value="" style="endArrow=none;html=1;rounded=0;entryX=0.5;entryY=1;entryDx=0;entryDy=0;" edge="1" parent="1" target="oZgCo_1qlDKIBE6nWb-r-284">
          <mxGeometry relative="1" as="geometry">
            <mxPoint x="650" y="860" as="sourcePoint" />
            <mxPoint x="750" y="810" as="targetPoint" />
          </mxGeometry>
        </mxCell>
        <mxCell id="oZgCo_1qlDKIBE6nWb-r-296" value="" style="endArrow=none;html=1;rounded=0;entryX=0.5;entryY=1;entryDx=0;entryDy=0;exitX=0.75;exitY=0;exitDx=0;exitDy=0;" edge="1" parent="1" source="oZgCo_1qlDKIBE6nWb-r-284" target="oZgCo_1qlDKIBE6nWb-r-294">
          <mxGeometry relative="1" as="geometry">
            <mxPoint x="720" y="645" as="sourcePoint" />
            <mxPoint x="880" y="645" as="targetPoint" />
          </mxGeometry>
        </mxCell>
        <mxCell id="oZgCo_1qlDKIBE6nWb-r-299" value="is_sheduled" style="shape=rhombus;perimeter=rhombusPerimeter;whiteSpace=wrap;html=1;align=center;" vertex="1" parent="1">
          <mxGeometry x="320" y="795" width="120" height="60" as="geometry" />
        </mxCell>
        <mxCell id="oZgCo_1qlDKIBE6nWb-r-300" value="" style="endArrow=none;html=1;rounded=0;exitX=1;exitY=0;exitDx=0;exitDy=0;entryX=0;entryY=0.5;entryDx=0;entryDy=0;" edge="1" parent="1" source="oZgCo_1qlDKIBE6nWb-r-198" target="oZgCo_1qlDKIBE6nWb-r-299">
          <mxGeometry relative="1" as="geometry">
            <mxPoint x="210" y="884.41" as="sourcePoint" />
            <mxPoint x="370" y="884.41" as="targetPoint" />
          </mxGeometry>
        </mxCell>
        <mxCell id="oZgCo_1qlDKIBE6nWb-r-301" value="" style="endArrow=none;html=1;rounded=0;entryX=0;entryY=1;entryDx=0;entryDy=0;exitX=1;exitY=0.5;exitDx=0;exitDy=0;" edge="1" parent="1" source="oZgCo_1qlDKIBE6nWb-r-299" target="oZgCo_1qlDKIBE6nWb-r-284">
          <mxGeometry relative="1" as="geometry">
            <mxPoint x="400" y="790" as="sourcePoint" />
            <mxPoint x="560" y="790" as="targetPoint" />
          </mxGeometry>
        </mxCell>
        <mxCell id="oZgCo_1qlDKIBE6nWb-r-302" value="1" style="resizable=0;html=1;whiteSpace=wrap;align=right;verticalAlign=bottom;direction=south;" connectable="0" vertex="1" parent="1">
          <mxGeometry x="250" y="915" as="geometry" />
        </mxCell>
        <mxCell id="oZgCo_1qlDKIBE6nWb-r-304" value="1" style="resizable=0;html=1;whiteSpace=wrap;align=right;verticalAlign=bottom;direction=south;" connectable="0" vertex="1" parent="1">
          <mxGeometry x="580.06" y="260" as="geometry">
            <mxPoint x="8" y="32" as="offset" />
          </mxGeometry>
        </mxCell>
        <mxCell id="oZgCo_1qlDKIBE6nWb-r-305" value="books" style="shape=rhombus;perimeter=rhombusPerimeter;whiteSpace=wrap;html=1;align=center;" vertex="1" parent="1">
          <mxGeometry x="370" y="500" width="120" height="60" as="geometry" />
        </mxCell>
        <mxCell id="oZgCo_1qlDKIBE6nWb-r-310" value="" style="endArrow=none;html=1;rounded=0;entryX=0.5;entryY=1;entryDx=0;entryDy=0;exitX=0;exitY=0.25;exitDx=0;exitDy=0;" edge="1" parent="1" source="oZgCo_1qlDKIBE6nWb-r-284" target="oZgCo_1qlDKIBE6nWb-r-305">
          <mxGeometry relative="1" as="geometry">
            <mxPoint x="500" y="680" as="sourcePoint" />
            <mxPoint x="505" y="589.23" as="targetPoint" />
          </mxGeometry>
        </mxCell>
        <mxCell id="oZgCo_1qlDKIBE6nWb-r-312" value="" style="endArrow=none;html=1;rounded=0;exitX=0.5;exitY=0;exitDx=0;exitDy=0;" edge="1" parent="1" source="oZgCo_1qlDKIBE6nWb-r-305">
          <mxGeometry relative="1" as="geometry">
            <mxPoint x="425" y="430" as="sourcePoint" />
            <mxPoint x="620" y="260" as="targetPoint" />
          </mxGeometry>
        </mxCell>
        <mxCell id="oZgCo_1qlDKIBE6nWb-r-313" value="N" style="resizable=0;html=1;whiteSpace=wrap;align=right;verticalAlign=bottom;direction=south;" connectable="0" vertex="1" parent="1">
          <mxGeometry x="570" y="690" as="geometry">
            <mxPoint x="8" y="32" as="offset" />
          </mxGeometry>
        </mxCell>
        <mxCell id="oZgCo_1qlDKIBE6nWb-r-314" value="N" style="resizable=0;html=1;whiteSpace=wrap;align=right;verticalAlign=bottom;direction=south;" connectable="0" vertex="1" parent="1">
          <mxGeometry x="640" y="760" as="geometry">
            <mxPoint x="8" y="32" as="offset" />
          </mxGeometry>
        </mxCell>
        <mxCell id="oZgCo_1qlDKIBE6nWb-r-315" value="prescriptions" style="whiteSpace=wrap;html=1;align=center;" vertex="1" parent="1">
          <mxGeometry x="1140" y="740" width="100" height="40" as="geometry" />
        </mxCell>
        <mxCell id="oZgCo_1qlDKIBE6nWb-r-316" value="prescription_id" style="ellipse;whiteSpace=wrap;html=1;align=center;fontStyle=4;" vertex="1" parent="1">
          <mxGeometry x="1140" y="660" width="100" height="40" as="geometry" />
        </mxCell>
        <mxCell id="oZgCo_1qlDKIBE6nWb-r-317" value="appointment_id" style="ellipse;whiteSpace=wrap;html=1;align=center;" vertex="1" parent="1">
          <mxGeometry x="1020" y="670" width="100" height="40" as="geometry" />
        </mxCell>
        <mxCell id="oZgCo_1qlDKIBE6nWb-r-318" value="remarks" style="ellipse;whiteSpace=wrap;html=1;align=center;" vertex="1" parent="1">
          <mxGeometry x="1030" y="850" width="100" height="40" as="geometry" />
        </mxCell>
        <mxCell id="oZgCo_1qlDKIBE6nWb-r-319" value="" style="endArrow=none;html=1;rounded=0;exitX=0.5;exitY=0;exitDx=0;exitDy=0;entryX=0.39;entryY=1.091;entryDx=0;entryDy=0;entryPerimeter=0;" edge="1" parent="1" source="oZgCo_1qlDKIBE6nWb-r-318" target="oZgCo_1qlDKIBE6nWb-r-315">
          <mxGeometry relative="1" as="geometry">
            <mxPoint x="1090" y="830" as="sourcePoint" />
            <mxPoint x="1250" y="830" as="targetPoint" />
          </mxGeometry>
        </mxCell>
        <mxCell id="oZgCo_1qlDKIBE6nWb-r-320" value="date" style="ellipse;whiteSpace=wrap;html=1;align=center;" vertex="1" parent="1">
          <mxGeometry x="1240" y="840" width="100" height="40" as="geometry" />
        </mxCell>
        <mxCell id="oZgCo_1qlDKIBE6nWb-r-322" value="" style="endArrow=none;html=1;rounded=0;entryX=0.3;entryY=1;entryDx=0;entryDy=0;entryPerimeter=0;exitX=0.25;exitY=0;exitDx=0;exitDy=0;" edge="1" parent="1" source="oZgCo_1qlDKIBE6nWb-r-315" target="oZgCo_1qlDKIBE6nWb-r-316">
          <mxGeometry relative="1" as="geometry">
            <mxPoint x="1150" y="720" as="sourcePoint" />
            <mxPoint x="1310" y="720" as="targetPoint" />
          </mxGeometry>
        </mxCell>
        <mxCell id="oZgCo_1qlDKIBE6nWb-r-323" value="" style="endArrow=none;html=1;rounded=0;exitX=0.364;exitY=-0.047;exitDx=0;exitDy=0;exitPerimeter=0;entryX=0.75;entryY=1;entryDx=0;entryDy=0;" edge="1" parent="1" source="oZgCo_1qlDKIBE6nWb-r-320" target="oZgCo_1qlDKIBE6nWb-r-315">
          <mxGeometry relative="1" as="geometry">
            <mxPoint x="1220" y="835" as="sourcePoint" />
            <mxPoint x="1270" y="765" as="targetPoint" />
          </mxGeometry>
        </mxCell>
        <mxCell id="oZgCo_1qlDKIBE6nWb-r-324" value="symptoms" style="ellipse;whiteSpace=wrap;html=1;align=center;" vertex="1" parent="1">
          <mxGeometry x="1130" y="890" width="100" height="40" as="geometry" />
        </mxCell>
        <mxCell id="oZgCo_1qlDKIBE6nWb-r-325" value="" style="endArrow=none;html=1;rounded=0;entryX=0.5;entryY=1;entryDx=0;entryDy=0;" edge="1" parent="1" target="oZgCo_1qlDKIBE6nWb-r-315">
          <mxGeometry relative="1" as="geometry">
            <mxPoint x="1180" y="890" as="sourcePoint" />
            <mxPoint x="1280" y="840" as="targetPoint" />
          </mxGeometry>
        </mxCell>
        <mxCell id="oZgCo_1qlDKIBE6nWb-r-327" value="" style="endArrow=none;html=1;rounded=0;exitX=1;exitY=1;exitDx=0;exitDy=0;" edge="1" parent="1" source="oZgCo_1qlDKIBE6nWb-r-317">
          <mxGeometry relative="1" as="geometry">
            <mxPoint x="990" y="765" as="sourcePoint" />
            <mxPoint x="1140" y="760" as="targetPoint" />
            <Array as="points">
              <mxPoint x="1120" y="730" />
            </Array>
          </mxGeometry>
        </mxCell>
        <mxCell id="oZgCo_1qlDKIBE6nWb-r-328" value="generates&lt;div&gt;&lt;br&gt;&lt;/div&gt;" style="shape=rhombus;perimeter=rhombusPerimeter;whiteSpace=wrap;html=1;align=center;" vertex="1" parent="1">
          <mxGeometry x="870" y="800" width="120" height="60" as="geometry" />
        </mxCell>
        <mxCell id="oZgCo_1qlDKIBE6nWb-r-329" value="" style="endArrow=none;html=1;rounded=0;entryX=0;entryY=0.5;entryDx=0;entryDy=0;exitX=1;exitY=0.5;exitDx=0;exitDy=0;" edge="1" parent="1" source="oZgCo_1qlDKIBE6nWb-r-284" target="oZgCo_1qlDKIBE6nWb-r-328">
          <mxGeometry relative="1" as="geometry">
            <mxPoint x="720" y="733.5699999999999" as="sourcePoint" />
            <mxPoint x="880" y="733.5699999999999" as="targetPoint" />
          </mxGeometry>
        </mxCell>
        <mxCell id="oZgCo_1qlDKIBE6nWb-r-330" value="" style="endArrow=none;html=1;rounded=0;entryX=0;entryY=0.75;entryDx=0;entryDy=0;exitX=1;exitY=0.5;exitDx=0;exitDy=0;" edge="1" parent="1" source="oZgCo_1qlDKIBE6nWb-r-328" target="oZgCo_1qlDKIBE6nWb-r-315">
          <mxGeometry relative="1" as="geometry">
            <mxPoint x="880" y="830" as="sourcePoint" />
            <mxPoint x="1040" y="830" as="targetPoint" />
          </mxGeometry>
        </mxCell>
        <mxCell id="oZgCo_1qlDKIBE6nWb-r-331" value="1" style="resizable=0;html=1;whiteSpace=wrap;align=right;verticalAlign=bottom;direction=south;" connectable="0" vertex="1" parent="1">
          <mxGeometry x="1110" y="735" as="geometry">
            <mxPoint x="8" y="32" as="offset" />
          </mxGeometry>
        </mxCell>
        <mxCell id="oZgCo_1qlDKIBE6nWb-r-332" value="1" style="resizable=0;html=1;whiteSpace=wrap;align=right;verticalAlign=bottom;direction=south;" connectable="0" vertex="1" parent="1">
          <mxGeometry x="720" y="700" as="geometry">
            <mxPoint x="8" y="32" as="offset" />
          </mxGeometry>
        </mxCell>
        <mxCell id="oZgCo_1qlDKIBE6nWb-r-333" value="prescription_id(FK)" style="ellipse;whiteSpace=wrap;html=1;align=center;" vertex="1" parent="1">
          <mxGeometry x="1460" y="670" width="120" height="40" as="geometry" />
        </mxCell>
        <mxCell id="oZgCo_1qlDKIBE6nWb-r-334" value="" style="endArrow=none;html=1;rounded=0;exitX=0.5;exitY=0;exitDx=0;exitDy=0;entryX=0.39;entryY=1.091;entryDx=0;entryDy=0;entryPerimeter=0;" edge="1" parent="1" source="oZgCo_1qlDKIBE6nWb-r-341">
          <mxGeometry relative="1" as="geometry">
            <mxPoint x="1520" y="650" as="sourcePoint" />
            <mxPoint x="1620.7000000000003" y="603.6400000000001" as="targetPoint" />
          </mxGeometry>
        </mxCell>
        <mxCell id="oZgCo_1qlDKIBE6nWb-r-335" value="quantity" style="ellipse;whiteSpace=wrap;html=1;align=center;" vertex="1" parent="1">
          <mxGeometry x="1610" y="480" width="100" height="40" as="geometry" />
        </mxCell>
        <mxCell id="oZgCo_1qlDKIBE6nWb-r-337" value="" style="endArrow=none;html=1;rounded=0;entryX=0.75;entryY=1;entryDx=0;entryDy=0;" edge="1" parent="1">
          <mxGeometry relative="1" as="geometry">
            <mxPoint x="1650" y="520" as="sourcePoint" />
            <mxPoint x="1667.5" y="600" as="targetPoint" />
          </mxGeometry>
        </mxCell>
        <mxCell id="oZgCo_1qlDKIBE6nWb-r-338" value="dosage" style="ellipse;whiteSpace=wrap;html=1;align=center;" vertex="1" parent="1">
          <mxGeometry x="1560" y="710" width="100" height="40" as="geometry" />
        </mxCell>
        <mxCell id="oZgCo_1qlDKIBE6nWb-r-339" value="" style="endArrow=none;html=1;rounded=0;entryX=0.5;entryY=1;entryDx=0;entryDy=0;" edge="1" parent="1">
          <mxGeometry relative="1" as="geometry">
            <mxPoint x="1610" y="710" as="sourcePoint" />
            <mxPoint x="1635" y="600" as="targetPoint" />
          </mxGeometry>
        </mxCell>
        <mxCell id="oZgCo_1qlDKIBE6nWb-r-340" value="" style="endArrow=none;html=1;rounded=0;exitX=0.616;exitY=-0.062;exitDx=0;exitDy=0;entryX=0.39;entryY=1.091;entryDx=0;entryDy=0;entryPerimeter=0;exitPerimeter=0;" edge="1" parent="1" source="oZgCo_1qlDKIBE6nWb-r-333">
          <mxGeometry relative="1" as="geometry">
            <mxPoint x="1460" y="666.36" as="sourcePoint" />
            <mxPoint x="1596.3000000000002" y="610.0000000000001" as="targetPoint" />
          </mxGeometry>
        </mxCell>
        <mxCell id="oZgCo_1qlDKIBE6nWb-r-341" value="prescribed_medicines" style="shape=ext;margin=3;double=1;whiteSpace=wrap;html=1;align=center;" vertex="1" parent="1">
          <mxGeometry x="1580" y="570" width="170" height="40" as="geometry" />
        </mxCell>
        <mxCell id="oZgCo_1qlDKIBE6nWb-r-342" value="medicine_name" style="ellipse;whiteSpace=wrap;html=1;align=center;" vertex="1" parent="1">
          <mxGeometry x="1490" y="505" width="100" height="40" as="geometry" />
        </mxCell>
        <mxCell id="oZgCo_1qlDKIBE6nWb-r-343" value="include" style="shape=rhombus;perimeter=rhombusPerimeter;whiteSpace=wrap;html=1;align=center;" vertex="1" parent="1">
          <mxGeometry x="1290" y="660" width="120" height="60" as="geometry" />
        </mxCell>
        <mxCell id="oZgCo_1qlDKIBE6nWb-r-344" value="" style="endArrow=none;html=1;rounded=0;" edge="1" parent="1" target="oZgCo_1qlDKIBE6nWb-r-343">
          <mxGeometry relative="1" as="geometry">
            <mxPoint x="1240" y="758.89" as="sourcePoint" />
            <mxPoint x="1400" y="758.89" as="targetPoint" />
          </mxGeometry>
        </mxCell>
        <mxCell id="oZgCo_1qlDKIBE6nWb-r-345" value="" style="endArrow=none;html=1;rounded=0;entryX=0;entryY=0.75;entryDx=0;entryDy=0;" edge="1" parent="1" target="oZgCo_1qlDKIBE6nWb-r-341">
          <mxGeometry relative="1" as="geometry">
            <mxPoint x="1360" y="664.4399999999999" as="sourcePoint" />
            <mxPoint x="1520" y="664.4399999999999" as="targetPoint" />
          </mxGeometry>
        </mxCell>
        <mxCell id="oZgCo_1qlDKIBE6nWb-r-348" value="1" style="resizable=0;html=1;whiteSpace=wrap;align=right;verticalAlign=bottom;direction=south;" connectable="0" vertex="1" parent="1">
          <mxGeometry x="1240" y="710" as="geometry">
            <mxPoint x="8" y="32" as="offset" />
          </mxGeometry>
        </mxCell>
        <mxCell id="oZgCo_1qlDKIBE6nWb-r-349" value="" style="endArrow=none;html=1;rounded=0;exitX=0.617;exitY=0.95;exitDx=0;exitDy=0;exitPerimeter=0;" edge="1" parent="1" source="oZgCo_1qlDKIBE6nWb-r-342">
          <mxGeometry relative="1" as="geometry">
            <mxPoint x="1420" y="579.44" as="sourcePoint" />
            <mxPoint x="1580" y="579.44" as="targetPoint" />
          </mxGeometry>
        </mxCell>
        <mxCell id="oZgCo_1qlDKIBE6nWb-r-350" value="N" style="resizable=0;html=1;whiteSpace=wrap;align=right;verticalAlign=bottom;direction=south;" connectable="0" vertex="1" parent="1">
          <mxGeometry x="1560" y="570" as="geometry">
            <mxPoint x="8" y="32" as="offset" />
          </mxGeometry>
        </mxCell>
        <mxCell id="oZgCo_1qlDKIBE6nWb-r-351" value="bills" style="whiteSpace=wrap;html=1;align=center;" vertex="1" parent="1">
          <mxGeometry x="1210" y="250" width="100" height="40" as="geometry" />
        </mxCell>
        <mxCell id="oZgCo_1qlDKIBE6nWb-r-352" value="bill_id" style="ellipse;whiteSpace=wrap;html=1;align=center;fontStyle=4;" vertex="1" parent="1">
          <mxGeometry x="1200" y="140" width="100" height="40" as="geometry" />
        </mxCell>
        <mxCell id="oZgCo_1qlDKIBE6nWb-r-353" value="payment_status" style="ellipse;whiteSpace=wrap;html=1;align=center;" vertex="1" parent="1">
          <mxGeometry x="1080" y="195" width="100" height="40" as="geometry" />
        </mxCell>
        <mxCell id="oZgCo_1qlDKIBE6nWb-r-354" value="patient_id(FK)" style="ellipse;whiteSpace=wrap;html=1;align=center;" vertex="1" parent="1">
          <mxGeometry x="1100" y="360" width="100" height="40" as="geometry" />
        </mxCell>
        <mxCell id="oZgCo_1qlDKIBE6nWb-r-355" value="" style="endArrow=none;html=1;rounded=0;exitX=0.5;exitY=0;exitDx=0;exitDy=0;entryX=0.39;entryY=1.091;entryDx=0;entryDy=0;entryPerimeter=0;" edge="1" parent="1" source="oZgCo_1qlDKIBE6nWb-r-354" target="oZgCo_1qlDKIBE6nWb-r-351">
          <mxGeometry relative="1" as="geometry">
            <mxPoint x="1160" y="340" as="sourcePoint" />
            <mxPoint x="1320" y="340" as="targetPoint" />
          </mxGeometry>
        </mxCell>
        <mxCell id="oZgCo_1qlDKIBE6nWb-r-356" value="appointment_id" style="ellipse;whiteSpace=wrap;html=1;align=center;" vertex="1" parent="1">
          <mxGeometry x="1310" y="360" width="100" height="40" as="geometry" />
        </mxCell>
        <mxCell id="oZgCo_1qlDKIBE6nWb-r-358" value="" style="endArrow=none;html=1;rounded=0;entryX=0.3;entryY=1;entryDx=0;entryDy=0;entryPerimeter=0;exitX=0.25;exitY=0;exitDx=0;exitDy=0;" edge="1" parent="1" source="oZgCo_1qlDKIBE6nWb-r-351" target="oZgCo_1qlDKIBE6nWb-r-352">
          <mxGeometry relative="1" as="geometry">
            <mxPoint x="1220" y="230" as="sourcePoint" />
            <mxPoint x="1380" y="230" as="targetPoint" />
          </mxGeometry>
        </mxCell>
        <mxCell id="oZgCo_1qlDKIBE6nWb-r-359" value="" style="endArrow=none;html=1;rounded=0;exitX=0.364;exitY=-0.047;exitDx=0;exitDy=0;exitPerimeter=0;entryX=0.75;entryY=1;entryDx=0;entryDy=0;" edge="1" parent="1" source="oZgCo_1qlDKIBE6nWb-r-356" target="oZgCo_1qlDKIBE6nWb-r-351">
          <mxGeometry relative="1" as="geometry">
            <mxPoint x="1290" y="345" as="sourcePoint" />
            <mxPoint x="1340" y="275" as="targetPoint" />
          </mxGeometry>
        </mxCell>
        <mxCell id="oZgCo_1qlDKIBE6nWb-r-360" value="total_cost" style="ellipse;whiteSpace=wrap;html=1;align=center;" vertex="1" parent="1">
          <mxGeometry x="1200" y="410" width="100" height="40" as="geometry" />
        </mxCell>
        <mxCell id="oZgCo_1qlDKIBE6nWb-r-361" value="" style="endArrow=none;html=1;rounded=0;exitX=1;exitY=1;exitDx=0;exitDy=0;" edge="1" parent="1" source="oZgCo_1qlDKIBE6nWb-r-353">
          <mxGeometry relative="1" as="geometry">
            <mxPoint x="1070" y="248.46" as="sourcePoint" />
            <mxPoint x="1230" y="248.46" as="targetPoint" />
          </mxGeometry>
        </mxCell>
        <mxCell id="oZgCo_1qlDKIBE6nWb-r-362" value="recieves" style="shape=rhombus;perimeter=rhombusPerimeter;whiteSpace=wrap;html=1;align=center;" vertex="1" parent="1">
          <mxGeometry x="890" y="250" width="120" height="60" as="geometry" />
        </mxCell>
        <mxCell id="oZgCo_1qlDKIBE6nWb-r-363" value="" style="endArrow=none;html=1;rounded=0;entryX=0;entryY=0.5;entryDx=0;entryDy=0;" edge="1" parent="1" target="oZgCo_1qlDKIBE6nWb-r-362">
          <mxGeometry relative="1" as="geometry">
            <mxPoint x="670" y="248.46" as="sourcePoint" />
            <mxPoint x="830" y="248.46" as="targetPoint" />
          </mxGeometry>
        </mxCell>
        <mxCell id="oZgCo_1qlDKIBE6nWb-r-364" value="" style="endArrow=none;html=1;rounded=0;entryX=0;entryY=0.5;entryDx=0;entryDy=0;exitX=1;exitY=0.5;exitDx=0;exitDy=0;" edge="1" parent="1" source="oZgCo_1qlDKIBE6nWb-r-362" target="oZgCo_1qlDKIBE6nWb-r-351">
          <mxGeometry relative="1" as="geometry">
            <mxPoint x="770" y="380" as="sourcePoint" />
            <mxPoint x="930" y="380" as="targetPoint" />
          </mxGeometry>
        </mxCell>
        <mxCell id="oZgCo_1qlDKIBE6nWb-r-365" value="1" style="resizable=0;html=1;whiteSpace=wrap;align=right;verticalAlign=bottom;direction=south;" connectable="0" vertex="1" parent="1">
          <mxGeometry x="710" y="240" as="geometry">
            <mxPoint x="8" y="32" as="offset" />
          </mxGeometry>
        </mxCell>
        <mxCell id="oZgCo_1qlDKIBE6nWb-r-366" value="N" style="resizable=0;html=1;whiteSpace=wrap;align=right;verticalAlign=bottom;direction=south;" connectable="0" vertex="1" parent="1">
          <mxGeometry x="1190" y="260" as="geometry">
            <mxPoint x="8" y="32" as="offset" />
          </mxGeometry>
        </mxCell>
        <mxCell id="oZgCo_1qlDKIBE6nWb-r-368" value="" style="endArrow=none;html=1;rounded=0;entryX=0.5;entryY=1;entryDx=0;entryDy=0;exitX=0.5;exitY=0;exitDx=0;exitDy=0;" edge="1" parent="1" source="oZgCo_1qlDKIBE6nWb-r-17" target="oZgCo_1qlDKIBE6nWb-r-28">
          <mxGeometry relative="1" as="geometry">
            <mxPoint x="520" y="170" as="sourcePoint" />
            <mxPoint x="680" y="170" as="targetPoint" />
          </mxGeometry>
        </mxCell>
        <mxCell id="oZgCo_1qlDKIBE6nWb-r-369" value="" style="endArrow=none;html=1;rounded=0;exitX=1;exitY=0.5;exitDx=0;exitDy=0;" edge="1" parent="1" source="oZgCo_1qlDKIBE6nWb-r-19">
          <mxGeometry relative="1" as="geometry">
            <mxPoint x="420" y="229.23000000000002" as="sourcePoint" />
            <mxPoint x="580" y="229.23000000000002" as="targetPoint" />
          </mxGeometry>
        </mxCell>
        <mxCell id="oZgCo_1qlDKIBE6nWb-r-370" value="" style="endArrow=none;html=1;rounded=0;entryX=0.5;entryY=0;entryDx=0;entryDy=0;exitX=0.5;exitY=1;exitDx=0;exitDy=0;" edge="1" parent="1" source="oZgCo_1qlDKIBE6nWb-r-1" target="oZgCo_1qlDKIBE6nWb-r-16">
          <mxGeometry relative="1" as="geometry">
            <mxPoint x="230" y="300" as="sourcePoint" />
            <mxPoint x="390" y="300" as="targetPoint" />
          </mxGeometry>
        </mxCell>
        <mxCell id="oZgCo_1qlDKIBE6nWb-r-373" value="" style="endArrow=none;html=1;rounded=0;entryX=0.645;entryY=0.944;entryDx=0;entryDy=0;entryPerimeter=0;" edge="1" parent="1" target="oZgCo_1qlDKIBE6nWb-r-1">
          <mxGeometry relative="1" as="geometry">
            <mxPoint x="240" y="550" as="sourcePoint" />
            <mxPoint x="360" y="543.33" as="targetPoint" />
          </mxGeometry>
        </mxCell>
        <mxCell id="oZgCo_1qlDKIBE6nWb-r-375" value="IS" style="shape=rhombus;perimeter=rhombusPerimeter;whiteSpace=wrap;html=1;align=center;" vertex="1" parent="1">
          <mxGeometry x="180" y="545" width="120" height="60" as="geometry" />
        </mxCell>
        <mxCell id="oZgCo_1qlDKIBE6nWb-r-376" value="" style="endArrow=none;html=1;rounded=0;exitX=0.5;exitY=1;exitDx=0;exitDy=0;" edge="1" parent="1" source="oZgCo_1qlDKIBE6nWb-r-375">
          <mxGeometry relative="1" as="geometry">
            <mxPoint x="340" y="770" as="sourcePoint" />
            <mxPoint x="210" y="920" as="targetPoint" />
          </mxGeometry>
        </mxCell>
        <mxCell id="oZgCo_1qlDKIBE6nWb-r-379" value="is" style="shape=rhombus;perimeter=rhombusPerimeter;whiteSpace=wrap;html=1;align=center;" vertex="1" parent="1">
          <mxGeometry x="330" y="210" width="120" height="60" as="geometry" />
        </mxCell>
        <mxCell id="oZgCo_1qlDKIBE6nWb-r-380" value="" style="endArrow=none;html=1;rounded=0;entryX=0;entryY=0.5;entryDx=0;entryDy=0;exitX=1;exitY=0.5;exitDx=0;exitDy=0;" edge="1" parent="1" source="oZgCo_1qlDKIBE6nWb-r-1" target="oZgCo_1qlDKIBE6nWb-r-379">
          <mxGeometry relative="1" as="geometry">
            <mxPoint x="280" y="260" as="sourcePoint" />
            <mxPoint x="440" y="260" as="targetPoint" />
          </mxGeometry>
        </mxCell>
        <mxCell id="oZgCo_1qlDKIBE6nWb-r-381" value="" style="endArrow=none;html=1;rounded=0;" edge="1" parent="1">
          <mxGeometry relative="1" as="geometry">
            <mxPoint x="450" y="238.32999999999998" as="sourcePoint" />
            <mxPoint x="580" y="238" as="targetPoint" />
          </mxGeometry>
        </mxCell>
        <mxCell id="oZgCo_1qlDKIBE6nWb-r-382" value="1" style="resizable=0;html=1;whiteSpace=wrap;align=right;verticalAlign=bottom;direction=south;" connectable="0" vertex="1" parent="1">
          <mxGeometry x="250" y="820" as="geometry">
            <mxPoint x="-20" y="68" as="offset" />
          </mxGeometry>
        </mxCell>
        <mxCell id="oZgCo_1qlDKIBE6nWb-r-383" value="1" style="resizable=0;html=1;whiteSpace=wrap;align=right;verticalAlign=bottom;direction=south;" connectable="0" vertex="1" parent="1">
          <mxGeometry x="270" y="310" as="geometry">
            <mxPoint x="4" y="17" as="offset" />
          </mxGeometry>
        </mxCell>
        <mxCell id="oZgCo_1qlDKIBE6nWb-r-384" value="1" style="resizable=0;html=1;whiteSpace=wrap;align=right;verticalAlign=bottom;direction=south;" connectable="0" vertex="1" parent="1">
          <mxGeometry x="310" y="280" as="geometry" />
        </mxCell>
        <mxCell id="oZgCo_1qlDKIBE6nWb-r-385" value="1" style="resizable=0;html=1;whiteSpace=wrap;align=right;verticalAlign=bottom;direction=south;" connectable="0" vertex="1" parent="1">
          <mxGeometry x="530" y="230" as="geometry" />
        </mxCell>
        <mxCell id="oZgCo_1qlDKIBE6nWb-r-386" value="" style="endArrow=none;html=1;rounded=0;exitX=1;exitY=0.5;exitDx=0;exitDy=0;" edge="1" parent="1" source="oZgCo_1qlDKIBE6nWb-r-3">
          <mxGeometry relative="1" as="geometry">
            <mxPoint x="30" y="268" as="sourcePoint" />
            <mxPoint x="190" y="268" as="targetPoint" />
          </mxGeometry>
        </mxCell>
        <mxCell id="oZgCo_1qlDKIBE6nWb-r-394" value="roles" style="whiteSpace=wrap;html=1;align=center;" vertex="1" parent="1">
          <mxGeometry x="-180" y="375" width="100" height="40" as="geometry" />
        </mxCell>
        <mxCell id="oZgCo_1qlDKIBE6nWb-r-395" value="role_id" style="ellipse;whiteSpace=wrap;html=1;align=center;fontStyle=4;" vertex="1" parent="1">
          <mxGeometry x="-290" y="310" width="100" height="40" as="geometry" />
        </mxCell>
        <mxCell id="oZgCo_1qlDKIBE6nWb-r-396" value="role_name" style="ellipse;whiteSpace=wrap;html=1;align=center;" vertex="1" parent="1">
          <mxGeometry x="-340" y="385" width="100" height="40" as="geometry" />
        </mxCell>
        <mxCell id="oZgCo_1qlDKIBE6nWb-r-397" value="permission" style="ellipse;whiteSpace=wrap;html=1;align=center;" vertex="1" parent="1">
          <mxGeometry x="-290" y="485" width="100" height="40" as="geometry" />
        </mxCell>
        <mxCell id="oZgCo_1qlDKIBE6nWb-r-398" value="" style="endArrow=none;html=1;rounded=0;exitX=0.5;exitY=0;exitDx=0;exitDy=0;entryX=0.39;entryY=1.091;entryDx=0;entryDy=0;entryPerimeter=0;" edge="1" parent="1" source="oZgCo_1qlDKIBE6nWb-r-397" target="oZgCo_1qlDKIBE6nWb-r-394">
          <mxGeometry relative="1" as="geometry">
            <mxPoint x="-230" y="465" as="sourcePoint" />
            <mxPoint x="-70" y="465" as="targetPoint" />
          </mxGeometry>
        </mxCell>
        <mxCell id="oZgCo_1qlDKIBE6nWb-r-399" value="" style="line;strokeWidth=1;rotatable=0;dashed=0;labelPosition=right;align=left;verticalAlign=middle;spacingTop=0;spacingLeft=6;points=[];portConstraint=eastwest;" vertex="1" parent="1">
          <mxGeometry x="-240" y="400" width="60" height="10" as="geometry" />
        </mxCell>
        <mxCell id="oZgCo_1qlDKIBE6nWb-r-400" value="" style="endArrow=none;html=1;rounded=0;entryX=0.3;entryY=1;entryDx=0;entryDy=0;entryPerimeter=0;exitX=0.25;exitY=0;exitDx=0;exitDy=0;" edge="1" parent="1" source="oZgCo_1qlDKIBE6nWb-r-394" target="oZgCo_1qlDKIBE6nWb-r-395">
          <mxGeometry relative="1" as="geometry">
            <mxPoint x="-170" y="355" as="sourcePoint" />
            <mxPoint x="-10" y="355" as="targetPoint" />
          </mxGeometry>
        </mxCell>
        <mxCell id="oZgCo_1qlDKIBE6nWb-r-401" value="assigned" style="shape=rhombus;perimeter=rhombusPerimeter;whiteSpace=wrap;html=1;align=center;" vertex="1" parent="1">
          <mxGeometry x="-70" y="290" width="120" height="60" as="geometry" />
        </mxCell>
        <mxCell id="oZgCo_1qlDKIBE6nWb-r-402" value="" style="endArrow=none;html=1;rounded=0;entryX=0;entryY=1;entryDx=0;entryDy=0;" edge="1" parent="1" target="oZgCo_1qlDKIBE6nWb-r-401">
          <mxGeometry relative="1" as="geometry">
            <mxPoint x="-80" y="370" as="sourcePoint" />
            <mxPoint x="70" y="390" as="targetPoint" />
          </mxGeometry>
        </mxCell>
        <mxCell id="oZgCo_1qlDKIBE6nWb-r-403" value="" style="endArrow=none;html=1;rounded=0;entryX=0;entryY=0.75;entryDx=0;entryDy=0;exitX=1;exitY=0.5;exitDx=0;exitDy=0;" edge="1" parent="1" source="oZgCo_1qlDKIBE6nWb-r-401" target="oZgCo_1qlDKIBE6nWb-r-1">
          <mxGeometry relative="1" as="geometry">
            <mxPoint x="10" y="319" as="sourcePoint" />
            <mxPoint x="170" y="319" as="targetPoint" />
          </mxGeometry>
        </mxCell>
        <mxCell id="oZgCo_1qlDKIBE6nWb-r-404" value="1" style="text;whiteSpace=wrap;html=1;" vertex="1" parent="1">
          <mxGeometry x="-70" y="370" width="40" height="40" as="geometry" />
        </mxCell>
        <mxCell id="oZgCo_1qlDKIBE6nWb-r-405" value="N" style="resizable=0;html=1;whiteSpace=wrap;align=right;verticalAlign=bottom;" connectable="0" vertex="1" parent="1">
          <mxGeometry x="125" y="257" as="geometry">
            <mxPoint x="51" y="28" as="offset" />
          </mxGeometry>
        </mxCell>
        <mxCell id="oZgCo_1qlDKIBE6nWb-r-415" value="price" style="ellipse;whiteSpace=wrap;html=1;align=center;" vertex="1" parent="1">
          <mxGeometry x="1640" y="1040" width="120" height="40" as="geometry" />
        </mxCell>
        <mxCell id="oZgCo_1qlDKIBE6nWb-r-416" value="quantity" style="ellipse;whiteSpace=wrap;html=1;align=center;" vertex="1" parent="1">
          <mxGeometry x="1850" y="1030" width="100" height="40" as="geometry" />
        </mxCell>
        <mxCell id="oZgCo_1qlDKIBE6nWb-r-417" value="" style="line;strokeWidth=1;rotatable=0;dashed=0;labelPosition=right;align=left;verticalAlign=middle;spacingTop=0;spacingLeft=6;points=[];portConstraint=eastwest;" vertex="1" parent="1">
          <mxGeometry x="1690" y="955" width="70" height="10" as="geometry" />
        </mxCell>
        <mxCell id="oZgCo_1qlDKIBE6nWb-r-418" value="" style="endArrow=none;html=1;rounded=0;exitX=0.364;exitY=-0.047;exitDx=0;exitDy=0;exitPerimeter=0;entryX=0.75;entryY=1;entryDx=0;entryDy=0;" edge="1" parent="1" source="oZgCo_1qlDKIBE6nWb-r-416">
          <mxGeometry relative="1" as="geometry">
            <mxPoint x="1830" y="1025" as="sourcePoint" />
            <mxPoint x="1847.5" y="970" as="targetPoint" />
          </mxGeometry>
        </mxCell>
        <mxCell id="oZgCo_1qlDKIBE6nWb-r-419" value="dosage" style="ellipse;whiteSpace=wrap;html=1;align=center;" vertex="1" parent="1">
          <mxGeometry x="1740" y="1080" width="100" height="40" as="geometry" />
        </mxCell>
        <mxCell id="oZgCo_1qlDKIBE6nWb-r-420" value="" style="endArrow=none;html=1;rounded=0;entryX=0.5;entryY=1;entryDx=0;entryDy=0;" edge="1" parent="1">
          <mxGeometry relative="1" as="geometry">
            <mxPoint x="1790" y="1080" as="sourcePoint" />
            <mxPoint x="1815" y="970" as="targetPoint" />
          </mxGeometry>
        </mxCell>
        <mxCell id="oZgCo_1qlDKIBE6nWb-r-421" value="" style="endArrow=none;html=1;rounded=0;exitX=0.616;exitY=-0.062;exitDx=0;exitDy=0;entryX=0.39;entryY=1.091;entryDx=0;entryDy=0;entryPerimeter=0;exitPerimeter=0;" edge="1" parent="1" source="oZgCo_1qlDKIBE6nWb-r-415">
          <mxGeometry relative="1" as="geometry">
            <mxPoint x="1640" y="1036.3600000000001" as="sourcePoint" />
            <mxPoint x="1776.3000000000002" y="980" as="targetPoint" />
          </mxGeometry>
        </mxCell>
        <mxCell id="oZgCo_1qlDKIBE6nWb-r-422" value="Medicines" style="whiteSpace=wrap;html=1;align=center;" vertex="1" parent="1">
          <mxGeometry x="1760" y="940" width="100" height="40" as="geometry" />
        </mxCell>
        <mxCell id="oZgCo_1qlDKIBE6nWb-r-423" value="medicine_name" style="ellipse;whiteSpace=wrap;html=1;align=center;fontStyle=4;" vertex="1" parent="1">
          <mxGeometry x="1590" y="940" width="100" height="40" as="geometry" />
        </mxCell>
        <mxCell id="oZgCo_1qlDKIBE6nWb-r-424" value="is_prescribed_in" style="shape=rhombus;perimeter=rhombusPerimeter;whiteSpace=wrap;html=1;align=center;" vertex="1" parent="1">
          <mxGeometry x="1790" y="745" width="120" height="60" as="geometry" />
        </mxCell>
        <mxCell id="oZgCo_1qlDKIBE6nWb-r-425" value="" style="endArrow=none;html=1;rounded=0;exitX=0.75;exitY=0;exitDx=0;exitDy=0;" edge="1" parent="1" source="oZgCo_1qlDKIBE6nWb-r-422">
          <mxGeometry relative="1" as="geometry">
            <mxPoint x="1690" y="803.46" as="sourcePoint" />
            <mxPoint x="1850" y="803.46" as="targetPoint" />
          </mxGeometry>
        </mxCell>
        <mxCell id="oZgCo_1qlDKIBE6nWb-r-427" value="" style="endArrow=none;html=1;rounded=0;exitX=1;exitY=1;exitDx=0;exitDy=0;" edge="1" parent="1" source="oZgCo_1qlDKIBE6nWb-r-341">
          <mxGeometry relative="1" as="geometry">
            <mxPoint x="1690" y="745" as="sourcePoint" />
            <mxPoint x="1850" y="745" as="targetPoint" />
          </mxGeometry>
        </mxCell>
        <mxCell id="oZgCo_1qlDKIBE6nWb-r-429" value="N" style="resizable=0;html=1;whiteSpace=wrap;align=right;verticalAlign=bottom;" connectable="0" vertex="1" parent="1">
          <mxGeometry x="1360" y="670" as="geometry">
            <mxPoint x="412" y="-46" as="offset" />
          </mxGeometry>
        </mxCell>
        <mxCell id="oZgCo_1qlDKIBE6nWb-r-432" value="1" style="text;whiteSpace=wrap;html=1;" vertex="1" parent="1">
          <mxGeometry x="1840" y="915" width="40" height="40" as="geometry" />
        </mxCell>
      </root>
    </mxGraphModel>
  </diagram>
</mxfile>
